Coordinates
version=1
nRows=65
nColumns=12
inDegrees=yes

Units are S.I. units (second, meters, Newtons, ...)
Angles are in degrees

endheader
time	SC_y	SC_z	SC_x	AC_y	AC_z	AC_x	GH_y	GH_z	GH_yy	EL_x	PS_y
       0.0              -13.17          28.32          24.36          66.92          0.912         -6.279           46.9          56.31           62.6           52.6          113.6
   0.01601              -13.17          28.32          24.36          66.92         0.9128          -6.28          46.91          56.31          62.61          52.61          113.6
   0.03201              -13.17          28.31          24.36          66.91         0.9137         -6.282          46.92          56.31          62.63          52.62          113.6
   0.04802              -13.18          28.31          24.35          66.91         0.9147         -6.284          46.93          56.31          62.64          52.64          113.6
   0.06402              -13.18           28.3          24.35           66.9         0.9157         -6.285          46.94          56.32          62.66          52.65          113.6
   0.08003              -13.18           28.3          24.35          66.89         0.9168         -6.287          46.96          56.32          62.68          52.67          113.5
   0.09603              -13.19          28.29          24.35          66.89         0.9179         -6.289          46.97          56.33           62.7          52.68          113.5
     0.112              -13.19          28.28          24.35          66.88         0.9191         -6.292          46.99          56.33          62.72           52.7          113.5
     0.128              -13.19          28.28          24.34          66.87         0.9204         -6.294           47.0          56.33          62.74          52.72          113.5
     0.144               -13.2          28.27          24.34          66.86         0.9218         -6.296          47.02          56.34          62.76          52.74          113.5
    0.1601               -13.2          28.26          24.34          66.85         0.9233         -6.299          47.04          56.34          62.79          52.76          113.5
    0.1761               -13.2          28.25          24.33          66.84          0.925         -6.302          47.06          56.35          62.81          52.78          113.5
    0.1921              -13.21          28.24          24.33          66.83         0.9267         -6.305          47.08          56.35          62.84          52.81          113.4
    0.2081              -13.21          28.23          24.33          66.82         0.9286         -6.309           47.1          56.36          62.87          52.84          113.4
    0.2241              -13.22          28.22          24.32          66.81         0.9307         -6.312          47.13          56.37          62.91          52.86          113.4
    0.2401              -13.23          28.21          24.32          66.79         0.9329         -6.316          47.15          56.37          62.94           52.9          113.4
    0.2561              -13.23           28.2          24.32          66.78         0.9353          -6.32          47.18          56.38          62.98          52.93          113.3
    0.2721              -13.24          28.18          24.31          66.76         0.9379         -6.325          47.21          56.39          63.03          52.97          113.3
    0.2881              -13.25          28.17          24.31          66.74         0.9408          -6.33          47.25           56.4          63.08          53.01          113.3
    0.3041              -13.26          28.15           24.3          66.72         0.9439         -6.336          47.29          56.41          63.13          53.05          113.2
    0.3201              -13.27          28.13          24.29           66.7         0.9474         -6.342          47.33          56.42          63.19           53.1          113.2
    0.3361              -13.28          28.11          24.29          66.68         0.9512         -6.349          47.37          56.43          63.25          53.16          113.2
    0.3521              -13.29          28.09          24.28          66.65         0.9554         -6.356          47.42          56.45          63.32          53.22          113.1
    0.3681               -13.3          28.06          24.27          66.62           0.96         -6.365          47.48          56.46           63.4          53.28          113.1
    0.3841              -13.32          28.04          24.26          66.59         0.9652         -6.374          47.54          56.48          63.48          53.36          113.0
    0.4001              -13.33           28.0          24.25          66.55          0.971         -6.384          47.61           56.5          63.58          53.44          113.0
    0.4161              -13.35          27.97          24.24          66.51         0.9774         -6.396          47.69          56.52          63.68          53.53          112.9
    0.4321              -13.37          27.93          24.22          66.47         0.9847         -6.409          47.78          56.54          63.81          53.64          112.8
    0.4481              -13.39          27.89          24.21          66.41         0.9929         -6.423          47.88          56.57          63.94          53.75          112.7
    0.4641              -13.42          27.84          24.19          66.35          1.002          -6.44          47.99           56.6           64.1          53.89          112.6
    0.4802              -13.45          27.78          24.17          66.29          1.013         -6.459          48.12          56.63          64.27          54.04          112.5
    0.4962              -13.48          27.71          24.15          66.21          1.025         -6.481          48.26          56.67          64.48          54.21          112.4
    0.5122              -13.52          27.64          24.12          66.12          1.039         -6.506          48.43          56.72          64.71          54.41          112.2
    0.5282              -13.56          27.55          24.09          66.02          1.056         -6.535          48.63          56.77          64.98          54.65          112.0
    0.5442              -13.62          27.44          24.05           65.9          1.075         -6.569          48.86          56.84           65.3          54.92          111.8
    0.5602              -13.68          27.32          24.01          65.76          1.097          -6.61          49.14          56.91          65.68          55.24          111.6
    0.5762              -13.75          27.18          23.96          65.59          1.124         -6.657          49.46           57.0          66.12          55.62          111.3
    0.5922              -13.84           27.0           23.9          65.38          1.156         -6.715          49.85           57.1          66.66          56.08          110.9
    0.6082              -13.95          26.79          23.83          65.14          1.195         -6.784          50.32          57.23           67.3          56.64          110.5
    0.6242              -14.08          26.53          23.74          64.84          1.243         -6.869          50.89          57.38          68.09          57.32          110.0
    0.6402              -14.24          26.22          23.63          64.47          1.302         -6.974           51.6          57.57          69.07          58.15          109.3
    0.6562              -14.44          25.82          23.49          64.01          1.375         -7.104          52.48          57.81          70.28           59.2          108.5
    0.6722              -14.69          25.32          23.32          63.42          1.467         -7.269          53.59          58.11          71.82          60.51          107.5
    0.6882              -15.02          24.69           23.1          62.69          1.584         -7.478          55.01           58.5          73.76          62.19          106.3
    0.7042              -15.43          23.88          22.82          61.74          1.734         -7.746          56.82          58.98          76.26          64.33          104.6
    0.7202              -15.96          22.84          22.46          60.53          1.927         -8.089          59.14          59.61          79.46          67.07          102.5
    0.7362              -16.63          21.51          21.99          58.98          2.173         -8.528          62.11          60.41          83.54          70.58          99.84
    0.7522              -17.48          19.84          21.41          57.03          2.482          -9.08          65.84          61.42          88.68          74.99          96.46
    0.7682              -18.52           17.8          20.71          54.65          2.859         -9.752          70.38          62.65          94.94          80.37          92.35
    0.7843              -19.72          15.44          19.89           51.9          3.296         -10.53          75.65          64.07          102.2           86.6          87.58
    0.8003              -21.02          12.88           19.0          48.91           3.77         -11.38          81.36          65.61          110.1          93.34          82.42
    0.8163              -22.32          10.33          18.11          45.93          4.243         -12.22          87.07          67.15          117.9          100.1          77.26
    0.8323              -23.52          7.964          17.29          43.18           4.68          -13.0          92.34          68.57          125.2          106.3          72.49
    0.8483              -24.56          5.927          16.59           40.8          5.057         -13.67          96.88           69.8          131.4          111.7          68.38
    0.8643              -25.41          4.255          16.01          38.85          5.366         -14.22          100.6          70.81          136.6          116.1          65.01
    0.8803              -26.08          2.926          15.54           37.3          5.612         -14.66          103.6          71.61          140.7          119.6          62.32
    0.8963              -26.61          1.885          15.18          36.09          5.805         -15.01          105.9          72.24          143.8          122.4          60.22
    0.9123              -27.02          1.074           14.9          35.14          5.955         -15.27          107.7          72.72          146.3          124.5          58.58
    0.9283              -27.35         0.4405          14.68           34.4          6.072         -15.48          109.1          73.11          148.3          126.2           57.3
    0.9443               -27.6       -0.05792          14.51          33.82          6.164         -15.65          110.2          73.41          149.8          127.5           56.3
    0.9603               -27.8        -0.4536          14.37          33.36          6.237         -15.78          111.1          73.65          151.0          128.5           55.5
    0.9763              -27.96        -0.7709          14.26          32.99          6.296         -15.88          111.8          73.84          152.0          129.4          54.86
    0.9923              -28.09         -1.028          14.17          32.69          6.344         -15.97          112.4          73.99          152.8          130.1          54.34
     1.008               -28.2         -1.238           14.1          32.44          6.383         -16.04          112.9          74.12          153.4          130.6          53.92
     1.024              -28.29         -1.412          14.04          32.24          6.415         -16.09          113.3          74.22          154.0          131.1          53.56
